<svg width="80" height="80" viewBox="0 0 80 80" fill="none" xmlns="http://www.w3.org/2000/svg">
<circle cx="40.0014" cy="39.7436" r="38.2436" fill="white" stroke="#008F75" stroke-width="3"/>
<path d="M20.1289 54.6473C20.1289 52.0122 21.1757 49.4849 23.0391 47.6216C24.9024 45.7582 27.4296 44.7114 30.0648 44.7114H49.9366C52.5718 44.7114 55.099 45.7582 56.9623 47.6216C58.8257 49.4849 59.8725 52.0122 59.8725 54.6473C59.8725 55.9649 59.3491 57.2285 58.4174 58.1602C57.4857 59.0919 56.2221 59.6153 54.9045 59.6153H25.0969C23.7793 59.6153 22.5157 59.0919 21.584 58.1602C20.6523 57.2285 20.1289 55.9649 20.1289 54.6473Z" stroke="#008F75" stroke-width="4" stroke-linejoin="round"/>
<path d="M39.9988 34.7757C44.1144 34.7757 47.4507 31.4393 47.4507 27.3237C47.4507 23.2082 44.1144 19.8718 39.9988 19.8718C35.8832 19.8718 32.5469 23.2082 32.5469 27.3237C32.5469 31.4393 35.8832 34.7757 39.9988 34.7757Z" stroke="#008F75" stroke-width="4"/>
</svg>
