<svg width="80" height="80" viewBox="0 0 80 80" fill="none" xmlns="http://www.w3.org/2000/svg">
<circle cx="40.0014" cy="39.7436" r="39.7436" fill="white"/>
<circle cx="40.0014" cy="39.7436" r="38.2436" fill="white" stroke="#008F75" stroke-width="3"/>
<path d="M27.3218 50.0023L27.3356 49.9882L27.3439 49.9796L27.3672 49.9555L27.3692 49.9535L27.3672 49.9423L27.3198 49.6719L27.3218 50.0023ZM27.3218 50.0023L25.7682 50.4924L27.3218 50.0023ZM35.2044 48.2891L27.766 49.5937L29.0706 42.1553L48.734 22.4919L54.8659 28.6275L35.2044 48.2891ZM49.7958 21.4301C49.7956 21.4304 49.7953 21.4307 49.795 21.431L49.7958 21.4301L48.7344 20.3686L49.7958 21.4301ZM27.3748 49.9856L27.3672 49.988L27.3748 49.9856Z" stroke="#008F75" stroke-width="4"/>
</svg>
