<svg width="36" height="36" viewBox="0 0 36 36" fill="none" xmlns="http://www.w3.org/2000/svg">
<path d="M13.7969 24.27H10.8906V14.9263H13.7969V24.27ZM12.3281 13.6763C11.4219 13.6763 10.6719 12.895 10.6719 11.9575C10.6719 11.0513 11.4219 10.3013 12.3281 10.3013C13.2656 10.3013 14.0156 11.0513 14.0156 11.9575C14.0156 12.895 13.2656 13.6763 12.3281 13.6763ZM24.6406 24.27H21.7656V19.7388C21.7656 18.645 21.7344 17.27 20.2344 17.27C18.7344 17.27 18.5156 18.4263 18.5156 19.645V24.27H15.6094V14.9263H18.3906V16.2075H18.4219C18.8281 15.4888 19.7656 14.7075 21.1719 14.7075C24.1094 14.7075 24.6719 16.645 24.6719 19.145V24.27H24.6406Z" fill="white"/>
<rect x="0.671875" y="1.27002" width="34" height="34" rx="2.5" stroke="white" stroke-opacity="0.15"/>
</svg>
