<svg width="36" height="36" viewBox="0 0 36 36" fill="none" xmlns="http://www.w3.org/2000/svg">
<path d="M25.8281 14.1763C26.2031 15.4888 26.2031 18.3013 26.2031 18.3013C26.2031 18.3013 26.2031 21.0825 25.8281 22.4263C25.6406 23.1763 25.0469 23.7388 24.3281 23.9263C22.9844 24.27 17.6719 24.27 17.6719 24.27C17.6719 24.27 12.3281 24.27 10.9844 23.9263C10.2656 23.7388 9.67188 23.1763 9.48438 22.4263C9.10938 21.0825 9.10938 18.3013 9.10938 18.3013C9.10938 18.3013 9.10938 15.4888 9.48438 14.1763C9.67188 13.4263 10.2656 12.8325 10.9844 12.645C12.3281 12.27 17.6719 12.27 17.6719 12.27C17.6719 12.27 22.9844 12.27 24.3281 12.645C25.0469 12.8325 25.6406 13.4263 25.8281 14.1763ZM15.9219 20.8325L20.3594 18.3013L15.9219 15.77V20.8325Z" fill="white"/>
<rect x="0.671875" y="1.27002" width="34" height="34" rx="2.5" stroke="white" stroke-opacity="0.15"/>
</svg>
