<svg width="36" height="36" viewBox="0 0 36 36" fill="none" xmlns="http://www.w3.org/2000/svg">
<path d="M24.0156 15.02C24.0156 15.1763 24.0156 15.3013 24.0156 15.4575C24.0156 19.8013 20.7344 24.77 14.7031 24.77C12.8281 24.77 11.1094 24.2388 9.67188 23.3013C9.92188 23.3325 10.1719 23.3638 10.4531 23.3638C11.9844 23.3638 13.3906 22.8325 14.5156 21.9575C13.0781 21.9263 11.8594 20.9888 11.4531 19.6763C11.6719 19.7075 11.8594 19.7388 12.0781 19.7388C12.3594 19.7388 12.6719 19.6763 12.9219 19.6138C11.4219 19.3013 10.2969 17.9888 10.2969 16.395V16.3638C10.7344 16.6138 11.2656 16.7388 11.7969 16.77C10.8906 16.1763 10.3281 15.1763 10.3281 14.0513C10.3281 13.4263 10.4844 12.8638 10.7656 12.395C12.3906 14.3638 14.8281 15.6763 17.5469 15.8325C17.4844 15.5825 17.4531 15.3325 17.4531 15.0825C17.4531 13.27 18.9219 11.8013 20.7344 11.8013C21.6719 11.8013 22.5156 12.1763 23.1406 12.8325C23.8594 12.6763 24.5781 12.395 25.2031 12.02C24.9531 12.8013 24.4531 13.4263 23.7656 13.8325C24.4219 13.77 25.0781 13.5825 25.6406 13.3325C25.2031 13.9888 24.6406 14.5513 24.0156 15.02Z" fill="white"/>
<rect x="0.671875" y="1.27002" width="34" height="34" rx="2.5" stroke="white" stroke-opacity="0.15"/>
</svg>
